<svg width="25" height="25" viewBox="0 0 25 25" fill="none" xmlns="http://www.w3.org/2000/svg">
<g filter="url(#filter0_d)">
<path d="M12.5 0C7.80558 0 4 3.80558 4 8.5C4 13.1944 7.80558 17 12.5 17C17.1944 17 21 13.1944 21 8.5C20.994 3.80809 17.1919 0.00601673 12.5 0ZM12.8647 16.2525V14.7574C12.8647 14.556 12.7014 14.3928 12.5 14.3928C12.2986 14.3928 12.1353 14.556 12.1353 14.7574V16.2525C8.13691 16.0616 4.93843 12.8631 4.74753 8.86465H6.2426C6.44398 8.86465 6.60725 8.70138 6.60725 8.5C6.60725 8.29862 6.44398 8.13535 6.2426 8.13535H4.74753C4.93843 4.13691 8.13691 0.938428 12.1353 0.747533V2.2426C12.1353 2.44398 12.2986 2.60725 12.5 2.60725C12.7014 2.60725 12.8647 2.44398 12.8647 2.2426V0.747533C16.8631 0.938428 20.0616 4.13691 20.2525 8.13535H18.7574C18.556 8.13535 18.3928 8.29862 18.3928 8.5C18.3928 8.70138 18.556 8.86465 18.7574 8.86465H18.761H20.2561C20.0651 12.8644 16.8645 16.0634 12.8647 16.2525Z" fill="#005FA3"/>
<path d="M16.3471 11.8913L12.8646 8.35049V4.67117C12.8646 4.46979 12.7014 4.30652 12.5 4.30652C12.2986 4.30652 12.1353 4.46979 12.1353 4.67117V8.5C12.1358 8.59568 12.1737 8.68734 12.2411 8.75526L15.8256 12.4018C15.9666 12.5458 16.1976 12.5482 16.3416 12.4072C16.4856 12.2662 16.488 12.0352 16.3471 11.8913Z" fill="#005FA3"/>
</g>
<defs>
<filter id="filter0_d" x="0" y="0" width="25" height="25" filterUnits="userSpaceOnUse" color-interpolation-filters="sRGB">
<feFlood flood-opacity="0" result="BackgroundImageFix"/>
<feColorMatrix in="SourceAlpha" type="matrix" values="0 0 0 0 0 0 0 0 0 0 0 0 0 0 0 0 0 0 127 0" result="hardAlpha"/>
<feOffset dy="4"/>
<feGaussianBlur stdDeviation="2"/>
<feComposite in2="hardAlpha" operator="out"/>
<feColorMatrix type="matrix" values="0 0 0 0 0 0 0 0 0 0 0 0 0 0 0 0 0 0 0.25 0"/>
<feBlend mode="normal" in2="BackgroundImageFix" result="effect1_dropShadow"/>
<feBlend mode="normal" in="SourceGraphic" in2="effect1_dropShadow" result="shape"/>
</filter>
</defs>
</svg>
