<svg width="40" height="40" viewBox="0 0 40 40" fill="none" xmlns="http://www.w3.org/2000/svg">
<g clip-path="url(#clip0)">
<path d="M32.584 4.44951C32.5608 4.42634 32.5144 4.40316 32.4913 4.35681C32.5144 4.40316 32.5608 4.42634 32.584 4.44951Z" fill="#FFFAF7"/>
<path d="M32.1437 4.10198C32.2596 4.19468 32.3754 4.28738 32.4913 4.3569C32.3754 4.28738 32.2596 4.19468 32.1437 4.10198C32.1205 4.0788 32.0742 4.05563 32.051 4.03245L32.0046 4.00928L32.051 4.03245C32.0742 4.05563 32.1205 4.0788 32.1437 4.10198Z" fill="#FFFAF7"/>
<path d="M31.9583 3.96285L31.8887 3.9165L31.9583 3.96285Z" fill="#FFFAF7"/>
<path d="M31.7033 3.77757C31.7265 3.80074 31.7265 3.80074 31.7497 3.82392C31.7497 3.80074 31.7265 3.80074 31.7033 3.77757L31.657 3.75439L31.7033 3.77757Z" fill="#FFFAF7"/>
<path d="M31.6802 3.75434C31.6339 3.73116 31.6107 3.70799 31.5875 3.68481C31.6107 3.70799 31.6339 3.73116 31.6802 3.75434Z" fill="#FFFAF7"/>
<path d="M31.263 3.47626C31.2167 3.45309 31.1935 3.42991 31.1472 3.40674C31.1935 3.42991 31.2399 3.45309 31.263 3.47626Z" fill="#FFFAF7"/>
<path d="M23.2909 0.278021C23.2213 0.254846 23.1286 0.254846 23.0591 0.231671C23.0128 0.231671 22.9896 0.231671 22.9432 0.208496C22.9896 0.208496 23.0128 0.208496 23.0591 0.231671C23.1286 0.231671 23.2213 0.254846 23.2909 0.278021Z" fill="#FFFAF7"/>
<path d="M28.4589 1.87712C28.2503 1.78442 28.0649 1.69172 27.8795 1.62219C28.0881 1.69172 28.2735 1.78442 28.4589 1.87712Z" fill="#FFFAF7"/>
<path d="M30.7764 3.15173C30.8227 3.17491 30.8691 3.19808 30.8922 3.22126C30.8691 3.19808 30.8227 3.17491 30.7764 3.15173Z" fill="#FFFAF7"/>
<path d="M26.0719 0.926929C26.0255 0.903754 25.9792 0.903754 25.9328 0.880579C25.8865 0.857404 25.8401 0.857404 25.7938 0.834229C25.8401 0.857404 25.8865 0.857404 25.9328 0.880579C25.956 0.903754 26.0023 0.926929 26.0719 0.926929Z" fill="#FFFAF7"/>
<path d="M25.3071 0.718366C25.2839 0.69519 25.2607 0.69519 25.2375 0.69519H25.2144H25.2375C25.2607 0.69519 25.2839 0.69519 25.3071 0.718366Z" fill="#FFFAF7"/>
<path d="M27.7404 1.55273C27.8099 1.57591 27.8563 1.59908 27.8795 1.62226C27.8331 1.59908 27.8099 1.57591 27.7404 1.55273Z" fill="#FFFAF7"/>
<path d="M30.2665 2.82737L30.3592 2.8969C30.4287 2.94325 30.4983 2.96642 30.5446 3.01277C30.4751 2.96642 30.4287 2.94325 30.3592 2.8969L30.2665 2.82737C30.2433 2.82737 30.2433 2.8042 30.2202 2.8042C30.2433 2.82737 30.2433 2.82737 30.2665 2.82737Z" fill="#FFFAF7"/>
<path d="M32.7462 4.58865C32.6999 4.5423 32.6535 4.51913 32.6072 4.47278C32.6535 4.51913 32.6999 4.5423 32.7462 4.58865Z" fill="#FFFAF7"/>
<path d="M29.9884 2.66512C30.0348 2.6883 30.0811 2.71147 30.1275 2.73465C30.0811 2.71147 30.0348 2.6883 29.9884 2.66512L29.9652 2.64195C29.9421 2.64195 29.9421 2.61877 29.9189 2.61877C29.9421 2.61877 29.9421 2.64195 29.9652 2.64195L29.9884 2.66512Z" fill="#FFFAF7"/>
<path d="M28.5052 1.90031L28.6674 1.99301C28.7369 2.01619 28.8065 2.06254 28.8528 2.08571C28.7833 2.06254 28.7138 2.01619 28.6674 1.99301L28.5052 1.90031C28.5052 1.90031 28.5052 1.87714 28.5052 1.90031C28.5052 1.87714 28.5052 1.90031 28.5052 1.90031Z" fill="#FFFAF7"/>
<path d="M27.022 1.27464C27.1611 1.32099 27.3233 1.39051 27.5087 1.46004C27.5319 1.46004 27.5319 1.46004 27.555 1.48321C27.5319 1.48321 27.5319 1.48321 27.5087 1.46004C27.3233 1.39051 27.1611 1.32099 27.022 1.27464L26.9293 1.25146H26.9061H26.9293L27.022 1.27464Z" fill="#FFFAF7"/>
<path d="M0.208557 17.1031C0.208557 17.0799 0.208557 17.0335 0.231732 17.0104V16.9872V17.0104C0.208557 17.0335 0.208557 17.0567 0.208557 17.1031Z" fill="#FFFAF7"/>
<path d="M0.115845 17.7752C0.115845 17.752 0.115845 17.7289 0.115845 17.7057C0.13902 17.7289 0.115845 17.752 0.115845 17.7752Z" fill="#FFFAF7"/>
<path d="M0.0463683 18.5399V18.5167C0.0463683 18.5167 0.0463683 18.5167 0.0463683 18.5399C0.0463683 18.6094 0.0231934 18.7021 0.0231934 18.7716C0.0463683 18.6789 0.0463683 18.6094 0.0463683 18.5399Z" fill="#FFFAF7"/>
<path d="M10.4519 26.7207C10.4519 26.7439 10.4751 26.7671 10.4751 26.7671C10.4519 26.7671 10.4519 26.7439 10.4519 26.7207Z" fill="#FFFAF7"/>
<path d="M20.7416 0.0231934C21.1819 0.0463683 21.6454 0.0695433 22.0857 0.115893C21.6454 0.0695433 21.2051 0.0231934 20.7416 0.0231934Z" fill="#FFFAF7"/>
<path d="M24.1947 0.440308C24.3337 0.463483 24.4496 0.486658 24.5655 0.533008C24.4496 0.486658 24.3106 0.463483 24.1947 0.440308Z" fill="#FFFAF7"/>
<path d="M28.8992 2.08569C29.2004 2.22474 29.4785 2.38697 29.7566 2.54919C29.4785 2.38697 29.2004 2.22474 28.8992 2.08569Z" fill="#FFFAF7"/>
<path d="M33.0243 4.82043C32.978 4.79725 32.9548 4.7509 32.9085 4.72773L32.8389 4.6582L32.9085 4.72773C32.9548 4.7509 33.0012 4.79725 33.0243 4.82043Z" fill="#FFFAF7"/>
<path d="M13.4647 8.71381C15.1796 6.88298 17.2654 5.44614 19.6292 4.54231C20.3476 4.26421 21.0661 4.03246 21.8077 3.87024C21.0661 4.05564 20.3476 4.26421 19.6292 4.54231C17.2422 5.46931 15.1564 6.88298 13.4647 8.71381Z" fill="#FFFAF7"/>
<path d="M17.0104 34.183C15.0406 33.0011 13.3256 31.402 11.9815 29.4785C11.4948 28.7832 11.0776 28.0648 10.7068 27.3C11.0776 28.0416 11.4948 28.7832 11.9815 29.4785C13.3256 31.3788 15.0406 32.9779 17.0104 34.183Z" fill="#FFFAF7"/>
<path d="M4.28737 30.2666C1.5759 27.5783 0.0695249 24.0093 0 20.2086V20.1623V20.0927C0 20.0696 0 20.0464 0 20.0464C0 20.0696 0 20.0927 0 20.0927C0 20.1159 0 20.1391 0 20.1623V20.2086C0.0695249 24.0093 1.5759 27.5783 4.28737 30.2666C6.99884 32.9317 10.591 34.4149 14.4148 34.4149C15.0174 34.4149 15.6199 34.3685 16.2225 34.299C15.6199 34.3685 15.0174 34.4149 14.4148 34.4149C10.591 34.4149 6.99884 32.9317 4.28737 30.2666Z" fill="#FFFAF7"/>
<path d="M33.4647 5.2143C33.511 5.26065 33.5342 5.28383 33.5805 5.307C33.5574 5.28383 33.511 5.26065 33.4647 5.2143L33.4183 5.16795L33.3951 5.14478L33.4183 5.16795L33.4647 5.2143Z" fill="#FFFAF7"/>
<path d="M34.0209 5.72424C33.9977 5.70106 33.9745 5.67789 33.9513 5.65471C33.9282 5.63154 33.8818 5.58519 33.8586 5.56201C33.8818 5.58519 33.9282 5.63154 33.9513 5.65471C33.9513 5.67789 33.9977 5.70106 34.0209 5.72424Z" fill="#FFFAF7"/>
<path d="M33.7196 5.44609C33.6964 5.42292 33.6501 5.39974 33.6269 5.35339C33.6501 5.37657 33.6732 5.42292 33.7196 5.44609Z" fill="#FFFAF7"/>
<path d="M0.23175 16.9409V16.9872C0.23175 17.0104 0.23175 17.0568 0.208575 17.0799V17.1031C0.208575 17.1263 0.208575 17.1495 0.208575 17.1726V17.219V17.2422V17.2653V17.2885C0.208575 17.358 0.1854 17.4276 0.1854 17.4971C0.1854 17.5666 0.162225 17.613 0.162225 17.6825C0.162225 17.7057 0.162225 17.7288 0.162225 17.752C0.162225 17.8215 0.13905 17.8911 0.13905 17.9606C0.13905 18.0069 0.13905 18.0765 0.115875 18.1228V18.1692C0.115875 18.1923 0.115875 18.2155 0.115875 18.2387C0.115875 18.2619 0.115875 18.285 0.115875 18.3082C0.115875 18.3314 0.115875 18.3314 0.115875 18.3546C0.115875 18.3777 0.115875 18.3777 0.115875 18.4009C0.115875 18.4241 0.115875 18.4473 0.115875 18.4704V18.4936C0.115875 18.5631 0.0926999 18.6558 0.0926999 18.7254C0.0926999 18.7717 0.0926999 18.7949 0.0926999 18.8412C0.0926999 18.8876 0.0926999 18.9108 0.0926999 18.9571C0.0926999 18.9571 0.0926999 18.9571 0.0926999 18.9803V19.0035V19.0266V19.0498C0.0926999 19.0962 0.0926999 19.1425 0.0926999 19.1889C0.0926999 19.212 0.0926999 19.2352 0.0926999 19.2352C0.0926999 19.3279 0.0926999 19.3974 0.0926999 19.467C0.0926999 19.4901 0.0926999 19.4901 0.0926999 19.5133V19.5365C0.0926999 19.606 0.0926999 19.6755 0.0926999 19.7219V19.7682V19.7914V19.8609C0 19.9305 0 19.9305 0 19.9536C0 19.9768 0 19.9768 0 20C0 20.0232 0 20.0232 0 20.0463C0 20.0695 0 20.0927 0 20.0927V20.1622V20.2086C0.0463499 24.0093 1.5759 27.5782 4.28737 30.2433C6.99884 32.9084 10.591 34.3916 14.4148 34.3916C15.0174 34.3916 15.6199 34.3453 16.2225 34.2758C16.5006 34.2526 16.7555 34.2062 17.0336 34.1599C15.0637 32.978 13.3488 31.3789 12.0046 29.4554C11.518 28.7601 11.1008 28.0417 10.73 27.2769C10.6373 27.1147 10.5678 26.9293 10.4983 26.7671C10.4983 26.7439 10.4751 26.7207 10.4751 26.7207C9.54809 24.6118 9.06141 22.3407 9.06141 20C9.06141 16.5933 10.0811 13.3256 12.0278 10.5214C12.4681 9.87252 12.9548 9.26997 13.4878 8.71377C15.2028 6.88295 17.2885 5.4461 19.6524 4.54228C20.3708 4.26418 21.0892 4.03243 21.8308 3.8702C23.0591 3.56893 24.3337 3.42988 25.6315 3.42988C28.6443 3.42988 31.5411 4.241 34.0672 5.7242C34.044 5.70103 34.0209 5.67785 33.9977 5.65467C33.9745 5.6315 33.9282 5.58515 33.905 5.56198L33.8818 5.5388C33.8586 5.51562 33.8123 5.49245 33.7891 5.4461C33.7659 5.42292 33.7196 5.39975 33.6964 5.3534C33.6964 5.3534 33.6964 5.3534 33.6732 5.33022C33.6269 5.30705 33.6037 5.2607 33.5574 5.23753L33.511 5.19117L33.4878 5.168C33.4415 5.12165 33.3951 5.0753 33.3256 5.02895C33.2561 4.9826 33.2097 4.93625 33.1634 4.8899C33.1402 4.86673 33.117 4.86673 33.117 4.84355C33.0707 4.82038 33.0475 4.77403 33.0012 4.75085L32.9316 4.68133L32.8853 4.63498L32.8621 4.6118L32.8389 4.58863C32.7926 4.54228 32.7462 4.5191 32.6999 4.47275C32.6767 4.44958 32.6304 4.4264 32.6072 4.38005C32.4913 4.28735 32.3754 4.19465 32.2827 4.12513C32.2596 4.10195 32.2132 4.07878 32.19 4.0556L32.1437 4.03243L32.1205 4.00925C32.1205 4.00925 32.1205 4.00925 32.0973 4.00925L32.0278 3.9629L32.0046 3.93973L31.9119 3.8702L31.8888 3.84703C31.8656 3.82385 31.8656 3.82385 31.8424 3.80068L31.8192 3.7775C31.7961 3.75433 31.7497 3.73115 31.7265 3.70798L31.7034 3.6848C31.6107 3.61528 31.5411 3.56893 31.4484 3.4994C31.4021 3.47623 31.3789 3.45305 31.3326 3.42988L31.3094 3.4067C31.263 3.36035 31.1935 3.33718 31.1472 3.29083C31.124 3.29083 31.124 3.26765 31.1008 3.26765C31.0545 3.24448 31.0081 3.2213 30.9849 3.19813C30.9154 3.15178 30.8691 3.1286 30.7995 3.08225C30.73 3.0359 30.6837 3.01273 30.6141 2.96638L30.5214 2.89685C30.4983 2.89685 30.4983 2.87368 30.4751 2.87368C30.4519 2.87368 30.4287 2.8505 30.4056 2.8505C30.3824 2.8505 30.3824 2.82733 30.3592 2.82733C30.3129 2.80415 30.2665 2.78098 30.2202 2.7578L30.197 2.73463C30.1738 2.73463 30.1738 2.71145 30.1506 2.71145C30.1043 2.68828 30.0579 2.6651 30.0348 2.64193C30.0348 2.64193 30.0348 2.64193 30.0116 2.64193C29.7335 2.4797 29.4322 2.34065 29.1541 2.17843H29.1309C29.0614 2.15525 28.9919 2.1089 28.9455 2.08573L28.5052 1.90033C28.5052 1.90033 28.5052 1.90033 28.482 1.90033C28.2735 1.80763 28.0881 1.71493 27.9027 1.6454C27.8563 1.62223 27.81 1.59905 27.7636 1.59905H27.7404H27.7173L27.6477 1.57588C27.6246 1.57588 27.6014 1.5527 27.555 1.5527C27.5319 1.5527 27.5319 1.5527 27.5087 1.52953C27.3233 1.46 27.1611 1.39048 27.022 1.34413L26.9293 1.32095H26.9061L26.8134 1.29778C26.5585 1.20508 26.3268 1.11238 26.0487 1.04286C26.0487 1.04286 26.0487 1.04286 26.0255 1.04286C25.9791 1.01968 25.9328 1.01968 25.8864 0.996505C25.8401 0.97333 25.7937 0.97333 25.7474 0.950155C25.7242 0.950155 25.6779 0.92698 25.6547 0.92698C25.5388 0.903805 25.4461 0.857455 25.3302 0.834281C25.3071 0.834281 25.3071 0.834281 25.2839 0.834281C25.2839 0.695231 25.2607 0.695231 25.2375 0.695231H25.2144H25.1912C24.9826 0.648881 24.774 0.579356 24.5423 0.533006C24.4264 0.509831 24.2874 0.486656 24.1715 0.440306C23.9629 0.393956 23.7312 0.347606 23.5226 0.301256C23.4531 0.278081 23.3604 0.278081 23.2908 0.254906C23.2213 0.231731 23.1286 0.231731 23.0591 0.208556C23.0127 0.208556 22.9896 0.208556 22.9432 0.185381C22.8969 0.185381 22.8505 0.162206 22.8042 0.162206C22.5724 0.139031 22.3407 0.0926815 22.1089 0.0695065C21.6686 0.0231566 21.2051 -1.8388e-05 20.7648 -0.0231934C20.5098 -1.8388e-05 20.2549 -1.8388e-05 20 -1.8388e-05C19.5829 -1.8388e-05 19.1425 0.0231566 18.7254 0.0463316C18.679 0.0463316 18.6327 0.0463316 18.5863 0.0463316C18.1228 0.0695065 17.6593 0.115856 17.1958 0.185381C17.1031 0.208556 17.0336 0.208556 16.9409 0.231731L0.23175 16.9409Z" fill="#005FA3"/>
<path d="M39.7682 23.0359V23.0127C39.7682 22.9895 39.7682 22.9663 39.7914 22.92V22.8968C39.7914 22.8505 39.8146 22.8273 39.8146 22.7809V22.7578V22.7346C39.8146 22.7114 39.8146 22.7114 39.8146 22.7114L39.8378 22.5955L39.8609 22.5028C39.8609 22.4101 39.8841 22.3406 39.8841 22.2711C39.8841 22.2016 39.9073 22.132 39.9073 22.0625C39.9073 21.993 39.9305 21.9466 39.9305 21.9003V21.8539C39.9305 21.8076 39.9305 21.7844 39.9305 21.7381V21.7149V21.6917C39.9305 21.6454 39.9305 21.599 39.9536 21.5295V21.5063C39.9536 21.4368 39.9768 21.3673 39.9768 21.2746C39.9768 21.205 39.9768 21.1123 40 21.0428V21.0196V20.9965V20.9733C40 20.9038 40 20.8342 40 20.7879C40 20.6952 40 20.6257 40 20.533V20.4866C40 20.4171 40 20.3707 40 20.3012V20.1622C40 20.1158 40 20.0695 40 19.9999C40 19.9536 40 19.8841 40 19.8377V19.7914C39.9536 15.9907 38.4241 12.4217 35.7126 9.7566C33.0011 7.09147 29.409 5.60828 25.5851 5.60828C24.7045 5.60828 23.8239 5.6778 22.9896 5.84003C24.9594 7.02195 26.6744 8.62102 28.0185 10.5445C29.9652 13.3255 30.9849 16.5932 30.9849 20.0231C30.9849 23.4298 29.9652 26.6975 28.0185 29.5017C26.1182 32.2131 23.4762 34.2989 20.394 35.4808C18.4936 36.2224 16.4774 36.5932 14.4148 36.5932C11.4021 36.5932 8.5052 35.7821 5.97913 34.2989H6.0023C6.02548 34.3221 6.02548 34.3221 6.04865 34.3452L6.095 34.3916C6.11818 34.4148 6.16453 34.4611 6.1877 34.4843C6.23405 34.5306 6.30358 34.6002 6.3731 34.6465C6.41945 34.6929 6.4658 34.716 6.48898 34.7624C6.5585 34.8319 6.62803 34.9014 6.72073 34.971C6.76708 35.0173 6.81343 35.0637 6.85978 35.11L6.88295 35.1332L7.022 35.2491L7.04517 35.2722C7.09152 35.2954 7.1147 35.3418 7.16105 35.3649L7.18422 35.3881L7.2074 35.4113C7.23057 35.4345 7.27692 35.4808 7.32327 35.504H7.34645H7.36962C7.3928 35.5272 7.43915 35.5503 7.46232 35.5735C7.5782 35.6662 7.6709 35.7357 7.78677 35.8284C7.80995 35.8516 7.83312 35.8748 7.8563 35.8748C7.87947 35.898 7.90265 35.9211 7.949 35.9443C7.97217 35.9675 7.97217 35.9675 7.99535 35.9675L8.01852 35.9907C8.06487 36.0138 8.11122 36.0602 8.15757 36.0834L8.20392 36.1065C8.2271 36.1297 8.25027 36.1297 8.27345 36.1529C8.29662 36.1761 8.34297 36.1992 8.36615 36.2224L8.4125 36.2456C8.5052 36.3151 8.57472 36.3615 8.66742 36.431C8.71377 36.4542 8.73695 36.4773 8.7833 36.5005L8.80647 36.5237L8.89917 36.5932L8.99187 36.6627C9.03822 36.6859 9.08457 36.7323 9.1541 36.7554C9.20045 36.7786 9.26997 36.825 9.31632 36.8481H9.50172L9.73347 37.0567C9.75665 37.0799 9.803 37.1031 9.84935 37.1262C9.91887 37.1726 9.9884 37.2189 10.0579 37.2421C10.1043 37.2653 10.1738 37.3116 10.2201 37.3348C10.5214 37.497 10.8227 37.6593 11.124 37.7983C11.1935 37.8215 11.263 37.8678 11.3325 37.891C11.3325 37.891 11.3557 37.891 11.3557 37.9142C11.4252 37.9374 11.4716 37.9837 11.5411 38.0069C11.7265 38.0996 11.9119 38.1923 12.1205 38.2618C12.1668 38.285 12.2132 38.3082 12.2595 38.3313C12.2827 38.3313 12.2827 38.3545 12.3059 38.3545C12.3754 38.3777 12.4218 38.4009 12.4913 38.424C12.6535 38.4936 12.8157 38.5399 12.978 38.6094C13.0243 38.6326 13.0938 38.6558 13.1402 38.679C13.3951 38.7717 13.65 38.8644 13.8818 38.9339C13.9281 38.9571 13.9745 38.9571 14.0208 38.9802C14.0904 39.0034 14.1599 39.0266 14.2526 39.0498L14.3221 39.0729C14.4148 39.0961 14.5075 39.1193 14.577 39.1425C14.6234 39.1656 14.6697 39.1656 14.7161 39.1888C15.2723 39.3279 15.8285 39.4669 16.3847 39.5596C16.4542 39.5828 16.5237 39.5828 16.6164 39.606C16.7091 39.6291 16.7787 39.6291 16.8482 39.6523C16.9177 39.6755 17.0104 39.6755 17.0799 39.6755C18.0069 39.8145 18.9339 39.8609 19.8841 39.8609C20.8111 39.8609 21.7613 39.7914 22.6883 39.6755H22.7115C22.781 39.6755 22.8505 39.6523 22.9432 39.6523L39.6524 22.9432C39.7682 23.0359 39.7682 23.0359 39.7682 23.0359Z" fill="#222222"/>
</g>
<defs>
<clipPath id="clip0">
<rect width="40" height="40" fill="white"/>
</clipPath>
</defs>
</svg>
